<svg version="1.2" xmlns="http://www.w3.org/2000/svg" viewBox="0 0 30 30" width="30" height="30">
	<style>
		.s0 { fill: #000000;stroke: #ffffff;stroke-width: 0 } 
		.s1 { fill: #ffffff;stroke: #ffffff;stroke-width: .6 } 
	</style>
	<g id="SVGRepo_bgCarrier">
		<path fill-rule="evenodd" class="s0" d="m15 0c8.28 0 15 6.72 15 15 0 8.28-6.72 15-15 15-8.28 0-15-6.72-15-15 0-8.28 6.72-15 15-15z"/>
	</g>
	<g id="SVGRepo_tracerCarrier">
	</g>
	<g id="SVGRepo_iconCarrier">
		<path class="s1" d="m16.31 9.42l1.02 1.44 5.17-1.44m-11.56 11.16l2.8-2.74-1.69-1.8m3.84-6.62l-1.5 1.35 2.52 0.09m-6.83-1.44l0.53 1.1 2.96 0.19m-1.91 4.42l2.19-4.08-6.35-0.34m4.42 4.67l2.06 2.22 2.28-2.23 0.7-4.16-2.77-0.14z"/>
	</g>
</svg>