<svg version="1.2" xmlns="http://www.w3.org/2000/svg" viewBox="0 0 70 70" width="70" height="70">
	<style>
		.s0 { fill: #e44d26 } 
		.s1 { fill: #f16529 } 
		.s2 { fill: #ebebeb } 
		.s3 { fill: #000000 } 
		.s4 { fill: #ffffff } 
	</style>
	<g>
		<path class="s0" d="m59.68 13.72l-4.49 50.49-20.21 5.61-20.15-5.6-4.49-50.5z"/>
		<path class="s1" d="m35.01 65.53l16.33-4.54 3.84-43.14h-20.17z"/>
		<path class="s2" d="m26.27 30.24h8.74v-6.2h-15.49l0.15 1.66 1.52 17.07h13.82v-6.19h-8.17z"/>
		<path class="s2" d="m27.66 45.87h-6.2l0.87 9.72 12.65 3.52 0.03-0.01v-6.44l-0.03 0.01-6.88-1.86z"/>
		<path class="s3" d="m14.93 0h3.14v3.11h2.87v-3.11h3.14v9.42h-3.14v-3.16h-2.87v3.16h-3.14v-9.42z"/>
		<path class="s3" d="m28.21 3.12h-2.77v-3.12h8.67v3.12h-2.76v6.3h-3.14v-6.3z"/>
		<path class="s3" d="m35.49 0h3.27l2.01 3.31 2.02-3.31h3.27v9.42h-3.13v-4.67l-2.16 3.35h-0.05l-2.16-3.35v4.67h-3.07z"/>
		<path class="s3" d="m47.62 0h3.14v6.3h4.42v3.12h-7.56z"/>
		<path class="s4" d="m34.99 42.77h7.6l-0.71 8.03-6.89 1.87v6.44l12.66-3.52 0.09-1.05 1.46-16.3 0.15-1.66h-14.36z"/>
		<path class="s4" d="m34.99 30.22v0.02h14.92l0.12-1.4 0.28-3.14 0.15-1.66h-15.47z"/>
	</g>
</svg>