<svg version="1.2" xmlns="http://www.w3.org/2000/svg" viewBox="0 0 70 70" width="70" height="70">
	<style>
		.s0 { fill: none } 
		.s1 { fill: #5d87a1 } 
		.s2 { fill: #f8981d } 
	</style>
	<path fill-rule="evenodd" class="s0" d="m69.89 10.78v48.31h-69.69v-48.31z"/>
	<path class="s1" d="m21.53 49.8h-1.89q-0.1-4.78-0.55-8.99h-0.01l-2.88 8.99h-1.43l-2.86-8.99h-0.02q-0.31 4.04-0.4 8.99h-1.72q0.17-6.02 0.84-11.28h2.34l2.72 8.29h0.02l2.73-8.29h2.24q0.74 6.17 0.87 11.28zm8.18-8.32q-1.15 6.25-3.04 9.09-1.47 2.18-3.22 2.18-0.47 0-1.15-0.28v-1q0.33 0.04 0.78 0.05 0.82 0 1.32-0.46 0.6-0.55 0.6-1.23 0-0.47-0.46-1.92l-2.08-6.43h1.86l1.48 4.81q0.51 1.64 0.42 2.29 1.22-3.26 1.71-7.1h1.78z"/>
	<path class="s2" d="m54.83 49.8h-5.36v-11.28h1.8v9.89h3.56zm-6.77 0.27l-2.07-1.02q0.28-0.23 0.52-0.51 1.32-1.55 1.32-4.59 0-5.59-4.39-5.59-2.16 0-3.36 1.42-1.32 1.55-1.32 4.57 0 2.98 1.17 4.36 1.07 1.25 3.23 1.25 0.8 0 1.47-0.19l2.7 1.57zm-6.71-2.53q-0.69-1.1-0.69-3.54 0-4.26 2.59-4.26 1.35 0 1.99 1.02 0.68 1.1 0.68 3.51 0 4.29-2.59 4.29-1.35 0-1.98-1.02zm-3.38-0.87q0 1.43-1.05 2.35-1.05 0.92-2.82 0.92-1.66 0-3.21-1.05l0.49-0.97q1.33 0.67 2.42 0.67 1.02 0 1.59-0.45c0.39-0.3 0.62-0.72 0.62-1.25 0-0.67-0.47-1.24-1.33-1.72-0.79-0.44-2.37-1.34-2.37-1.34-0.85-0.63-1.28-1.3-1.28-2.4q0-1.37 0.96-2.21 0.96-0.85 2.48-0.85 1.57 0 2.85 0.84l-0.43 0.97q-1.1-0.47-2.17-0.47-0.87 0-1.34 0.42c-0.31 0.27-0.5 0.63-0.5 1.07 0 0.66 0.47 1.24 1.35 1.73 0.8 0.44 2.42 1.36 2.42 1.36 0.88 0.62 1.32 1.29 1.32 2.38z"/>
	<path class="s1" d="m57.09 34.75c-1.09-0.03-1.93 0.08-2.64 0.38-0.21 0.08-0.53 0.08-0.56 0.34 0.11 0.11 0.12 0.29 0.22 0.44 0.16 0.27 0.45 0.64 0.71 0.83q0.42 0.33 0.87 0.62c0.53 0.33 1.13 0.52 1.65 0.85 0.3 0.19 0.6 0.43 0.9 0.64 0.14 0.11 0.24 0.28 0.43 0.35v-0.04c-0.09-0.12-0.12-0.3-0.22-0.44l-0.41-0.39q-0.6-0.8-1.41-1.38c-0.44-0.3-1.39-0.7-1.57-1.21l-0.03-0.02c0.3-0.03 0.66-0.14 0.94-0.22 0.47-0.13 0.89-0.1 1.37-0.22q0.32-0.09 0.65-0.19v-0.12c-0.25-0.25-0.42-0.58-0.68-0.81-0.69-0.6-1.46-1.18-2.25-1.67-0.42-0.28-0.97-0.45-1.42-0.68-0.16-0.09-0.43-0.13-0.53-0.26-0.24-0.3-0.38-0.7-0.56-1.05-0.39-0.75-0.77-1.58-1.11-2.37-0.25-0.53-0.4-1.06-0.7-1.55-1.4-2.32-2.92-3.72-5.27-5.1-0.5-0.28-1.1-0.41-1.74-0.56l-1.02-0.05c-0.22-0.1-0.44-0.36-0.63-0.48-0.78-0.49-2.78-1.55-3.35-0.15-0.37 0.89 0.55 1.76 0.86 2.21 0.23 0.31 0.53 0.67 0.69 1.02 0.1 0.23 0.13 0.48 0.22 0.72 0.22 0.6 0.42 1.27 0.71 1.83q0.22 0.44 0.5 0.84c0.11 0.15 0.3 0.22 0.35 0.46-0.19 0.28-0.21 0.69-0.32 1.03-0.49 1.53-0.3 3.44 0.4 4.57 0.21 0.34 0.73 1.09 1.43 0.81 0.61-0.25 0.47-1.03 0.65-1.71 0.04-0.16 0.01-0.27 0.1-0.38v0.03q0.29 0.56 0.55 1.13c0.43 0.67 1.16 1.36 1.78 1.82 0.32 0.25 0.58 0.67 0.99 0.82v-0.04h-0.03c-0.08-0.12-0.2-0.18-0.31-0.27-0.25-0.25-0.52-0.55-0.71-0.82q-0.85-1.16-1.52-2.48c-0.22-0.42-0.41-0.88-0.59-1.3-0.08-0.17-0.08-0.41-0.22-0.5-0.2 0.3-0.5 0.56-0.65 0.93-0.26 0.59-0.29 1.31-0.38 2.06l-0.06 0.02c-0.43-0.1-0.58-0.55-0.75-0.93-0.41-0.97-0.47-2.52-0.12-3.64 0.1-0.29 0.51-1.19 0.34-1.46-0.08-0.26-0.35-0.41-0.5-0.61-0.18-0.26-0.37-0.59-0.49-0.87-0.33-0.77-0.49-1.61-0.85-2.37-0.16-0.36-0.45-0.73-0.68-1.05-0.26-0.37-0.54-0.63-0.75-1.06-0.07-0.15-0.16-0.4-0.05-0.56q0.03-0.15 0.19-0.18c0.18-0.15 0.68 0.04 0.86 0.12 0.5 0.21 0.92 0.4 1.35 0.68 0.19 0.14 0.39 0.4 0.64 0.47h0.28c0.44 0.09 0.93 0.02 1.34 0.15 0.72 0.23 1.37 0.57 1.96 0.94 1.78 1.13 3.25 2.73 4.25 4.65 0.16 0.32 0.23 0.6 0.38 0.93 0.28 0.67 0.64 1.35 0.92 2 0.29 0.64 0.56 1.3 0.97 1.83 0.2 0.28 1.02 0.43 1.39 0.58 0.27 0.13 0.7 0.23 0.94 0.38q0.7 0.45 1.36 0.93c0.22 0.16 0.9 0.5 0.94 0.78zm-13.89-11.84q-0.07 0-0.14 0.01-0.07 0-0.14 0.01-0.07 0.01-0.14 0.02-0.07 0.01-0.14 0.03v0.03h0.03c0.11 0.22 0.3 0.37 0.43 0.56q0.16 0.32 0.31 0.65l0.03-0.03q0.29-0.19 0.29-0.68c-0.08-0.1-0.1-0.19-0.17-0.28-0.08-0.14-0.25-0.21-0.36-0.32z"/>
	<path class="s2" d="m58.39 49.79h0.28v-1.38h-0.42l-0.35 0.95-0.37-0.95h-0.41v1.38h0.26v-1.05h0.02l0.39 1.05h0.21l0.39-1.05zm-2.28 0h0.3v-1.14h0.39v-0.24h-1.09v0.24h0.4z"/>
</svg>