<svg version="1.2" xmlns="http://www.w3.org/2000/svg" viewBox="0 0 70 70" width="70" height="70">
	<style>
		.s0 { fill: #00759d } 
	</style>
	<g id="Icons">
		<g id="Color-">
			<path id="Wordpress" fill-rule="evenodd" class="s0" d="m3.03 20.76l16.7 45.74c-11.68-5.67-19.73-17.65-19.73-31.5 0-5.08 1.09-9.89 3.03-14.24zm52.93 23.79l-3.49 11.66-12.65-37.62c2.11-0.11 4.01-0.33 4.01-0.33 1.88-0.23 1.66-3-0.22-2.89 0 0-5.67 0.45-9.33 0.45-3.44 0-9.22-0.45-9.22-0.45-1.89-0.11-2.11 2.77-0.22 2.89 0 0 1.78 0.22 3.67 0.33l5.45 14.94-7.66 22.97-12.75-37.91c2.11-0.11 4.01-0.33 4.01-0.33 1.89-0.23 1.66-3-0.22-2.89 0 0-5.67 0.45-9.33 0.45-0.66 0-1.43-0.02-2.25-0.05 6.25-9.5 17.01-15.77 29.24-15.77 9.11 0 17.41 3.48 23.63 9.19q-0.22-0.02-0.45-0.03c-3.44 0-5.88 2.99-5.88 6.21 0 2.89 1.67 5.33 3.44 8.21 1.33 2.33 2.89 5.33 2.89 9.65 0 3-1.16 6.47-2.67 11.32zm14.04-9.55c0 12.91-7 24.19-17.4 30.25l10.69-30.91c1.99-4.99 2.66-8.98 2.66-12.53q-0.01-1.93-0.24-3.6c2.73 4.98 4.29 10.7 4.29 16.79zm-23.63 32.54q0.11 0.25 0.25 0.48c-3.64 1.28-7.55 1.98-11.62 1.98-3.44 0-6.75-0.5-9.89-1.42l10.5-30.52z"/>
		</g>
	</g>
</svg>