<svg version="1.2" xmlns="http://www.w3.org/2000/svg" viewBox="0 0 70 70" width="70" height="70">
	<style>
		.s0 { fill: #8892bf } 
		.s1 { fill: #ffffff } 
	</style>
	<path fill-rule="evenodd" class="s0" d="m35 65.63c-16.94 0-30.63-13.69-30.63-30.63 0-16.94 13.69-30.62 30.63-30.62 16.94 0 30.63 13.68 30.63 30.62 0 16.94-13.69 30.63-30.63 30.63z"/>
	<path class="s1" d="m31.59 21.88h3.67l-1.04 5.52h3.3q2.72 0.05 4.05 1.21 1.36 1.16 0.8 4.4l-1.78 9.62h-3.73l1.7-9.19q0.27-1.45-0.16-2.05-0.42-0.61-1.83-0.61l-2.96-0.03-2.18 11.88h-3.68z"/>
	<path fill-rule="evenodd" class="s1" d="m14.75 27.4h7.13q3.15 0.03 4.56 1.96 1.41 1.94 0.93 5.29-0.19 1.54-0.83 3.01-0.61 1.47-1.7 2.66-1.33 1.5-2.85 1.91-1.52 0.4-3.14 0.4h-3.2l-1.01 5.5h-3.7zm1.84 11.99h0.37q2.55 0.03 4.26-0.55 1.7-0.6 2.29-4.22 0.48-3.03-0.96-3.5-1.41-0.46-3.54-0.43-0.32 0.03-0.61 0.03h-0.54l-1.59 8.64q0.16 0.03 0.32 0.03z"/>
	<path fill-rule="evenodd" class="s1" d="m58.01 29.36q1.41 1.94 0.93 5.29-0.19 1.54-0.82 3.01-0.62 1.47-1.71 2.66-1.33 1.5-2.85 1.91-1.52 0.4-3.14 0.4h-3.2l-1.01 5.5h-3.7l3.81-20.73h7.13q3.15 0.03 4.56 1.96zm-8.58 1.36l-1.59 8.65q0.16 0.02 0.32 0.02h0.37q2.55 0.03 4.26-0.55 1.7-0.6 2.29-4.22 0.48-3.03-0.96-3.49-1.41-0.47-3.54-0.44-0.32 0.03-0.61 0.03z"/>
</svg>