<svg version="1.2" xmlns="http://www.w3.org/2000/svg" viewBox="0 0 70 70" width="70" height="70">
	<style>
		.s0 { fill: #f7df1e } 
		.s1 { fill: #000000 } 
	</style>
	<path fill-rule="evenodd" class="s0" d="m2.05 0h65.9c1.13 0 2.05 0.92 2.05 2.05v65.9c0 1.13-0.92 2.05-2.05 2.05h-65.9c-1.13 0-2.05-0.92-2.05-2.05v-65.9c0-1.13 0.92-2.05 2.05-2.05z"/>
	<path class="s1" d="m44.3 50.59c1.36 2.32 3.28 3.96 6.42 3.96 2.74 0 4.51-1.37 4.51-3.28 0-2.19-1.77-3.01-4.78-4.38l-1.64-0.68c-4.79-2.05-7.93-4.51-7.93-9.84 0-4.92 3.69-8.75 9.57-8.75 4.24 0 7.25 1.5 9.3 5.33l-5.06 3.28c-1.1-2.05-2.33-2.87-4.24-2.87-1.91 0-3.15 1.23-3.15 2.87 0 1.91 1.24 2.73 4.11 3.97l1.64 0.68c5.6 2.46 8.75 4.78 8.75 10.39 0 5.88-4.65 9.16-10.94 9.16-6.15 0-10.12-2.87-12.03-6.7zm-23.24 0.55c1.09 1.77 1.91 3.42 4.23 3.42 2.19 0 3.56-0.83 3.56-4.11v-22.69h6.56v22.42c0 6.84-3.96 9.84-9.84 9.84-5.33 0-8.34-2.73-9.85-6.01z"/>
</svg>